<svg width="24" height="24" viewBox="0 0 24 24" fill="none" xmlns="http://www.w3.org/2000/svg">
<path d="M18.2809 2.71941C18.6714 2.32874 19.3047 2.32867 19.6953 2.71925L21.281 4.30504C21.6715 4.6955 21.6716 5.32855 21.2812 5.7191L19.701 7.29999L16.701 4.29999L18.2809 2.71941Z" fill="#8B94B3"/>
<path d="M8 15.5C8 15.7762 8.22386 16 8.5 16H10.7929C10.9255 16 11.0527 15.9473 11.1464 15.8536L18.287 8.71301L15.287 5.71301L8.14645 12.8536C8.05268 12.9473 8 13.0745 8 13.2071V15.5Z" fill="#8B94B3"/>
<path d="M20 19.0092C20 19.5618 19.5518 20.0096 18.9992 20.0092L8.158 20C8.132 20 8.105 20.01 8.079 20.01C8.046 20.01 8.013 20.001 7.979 20H5C4.44771 20 4 19.5523 4 19V5C4 4.44772 4.44772 4 5 4H13L14 3H5C3.897 3 3 3.896 3 5V19C3 20.104 3.897 21 5 21H19C19.5304 21 20.0391 20.7893 20.4142 20.4142C20.7893 20.0391 21 19.5304 21 19V11L20 12V19.0092Z" fill="#8B94B3"/>
</svg>
